inDegrees=no
num_controls=7
num_derivatives=13
num_iterations=100
num_multipliers=7
num_parameters=0
num_slacks=7
num_states=26
objective=0.445731
objective_accelerations=0.057042
objective_balance=0.003269
objective_effort=0.022511
objective_height=0.357382
objective_ligament=0.005525
solver_duration=1380.400601
status=Solve_Succeeded
success=true
DataType=double
version=3
OpenSimVersion=4.5
endheader
time	/jointset/ground_pelvis/pelvis_tilt/value	/jointset/ground_pelvis/pelvis_tx/value	/jointset/ground_pelvis/pelvis_ty/value	/jointset/hip_l/hip_flexion_l/value	/jointset/hip_l/hip_adduction_l/value	/jointset/hip_l/hip_rotation_l/value	/jointset/back/lumbar_extension/value	/jointset/patellofemoral_l/patellar_flexion_l/value	/jointset/knee_l/knee_flexion_l/value	/jointset/knee_l/knee_adduction_l/value	/jointset/knee_l/knee_rotation_l/value	/jointset/ankle_l/ankle_angle_l/value	/jointset/subtalar_l/subtalar_angle_l/value	/jointset/ground_pelvis/pelvis_tilt/speed	/jointset/ground_pelvis/pelvis_tx/speed	/jointset/ground_pelvis/pelvis_ty/speed	/jointset/hip_l/hip_flexion_l/speed	/jointset/hip_l/hip_adduction_l/speed	/jointset/hip_l/hip_rotation_l/speed	/jointset/back/lumbar_extension/speed	/jointset/patellofemoral_l/patellar_flexion_l/speed	/jointset/knee_l/knee_flexion_l/speed	/jointset/knee_l/knee_adduction_l/speed	/jointset/knee_l/knee_rotation_l/speed	/jointset/ankle_l/ankle_angle_l/speed	/jointset/subtalar_l/subtalar_angle_l/speed	/forceset/tau_hip_flexion_l	/forceset/tau_hip_adduction_l	/forceset/tau_hip_rotation_l	/forceset/tau_knee_flexion_l	/forceset/tau_ankle_angle_l	/forceset/tau_subtalar_angle_l	/forceset/tau_lumbar_extension	lambda_cid13_p0	lambda_cid13_p1	lambda_cid13_p2	lambda_cid13_p3	lambda_cid13_p4	lambda_cid13_p5	lambda_cid14_p0	/jointset/ground_pelvis/pelvis_tilt/accel	/jointset/ground_pelvis/pelvis_tx/accel	/jointset/ground_pelvis/pelvis_ty/accel	/jointset/hip_l/hip_flexion_l/accel	/jointset/hip_l/hip_adduction_l/accel	/jointset/hip_l/hip_rotation_l/accel	/jointset/back/lumbar_extension/accel	/jointset/patellofemoral_l/patellar_flexion_l/accel	/jointset/knee_l/knee_flexion_l/accel	/jointset/knee_l/knee_adduction_l/accel	/jointset/knee_l/knee_rotation_l/accel	/jointset/ankle_l/ankle_angle_l/accel	/jointset/subtalar_l/subtalar_angle_l/accel	gamma_cid13_p0	gamma_cid13_p1	gamma_cid13_p2	gamma_cid13_p3	gamma_cid13_p4	gamma_cid13_p5	gamma_cid14_p0
1.5	-0.3550606477158934	-0.01595237607830477	0.76395698696071	1.08389265780047	-0.4354584131804438	-0.2117565031053198	-0.2244574461050342	0.8088542076626192	0.8088542076626198	-0.1296410950531154	-0.1452517186573209	0.1424961462387663	-0.01180057396474235	0.6469179101025615	0.2573247375224092	0.5256181171225025	-2.403570607446438	0.2122630761028735	-0.7138626263813275	0.3177670614641653	-2.026110522109874	-2.026110522109874	-0.1344107269501364	0.1383650273619706	-0.4358327583411643	0.01838517129476247	-0.1688033169624698	0.0386574709254368	-0.008600426133179549	-0.2053674750192011	0.03862272801748044	0.03488584245328775	0.1644654663028562	-19.83629715165837	-14.48666372841395	5.182131660423409	-6.803496213485348	-520.2508182647558	-54.56059565604376	-24.74954587182271	0.6180791525845449	0.6699505099685581	-0.5188740366203687	-1.227437255853132	0.696631158510575	-0.1889326006995658	1.449779982107111	-1.323746081040517	-1.323746081040517	0.1238168122176698	0.2204279756446421	-0.5212122632819571	0.492743775714743	5.084150122026429e-07	3.717193670113349e-07	-3.07568969232718e-06	-1.424046753449975e-07	7.391167386500567e-07	5.62686013456107e-08	4.597315174942758e-07
1.51	-0.3485606331085803	-0.01334585656160154	0.7691861804474797	1.059797256742952	-0.4333024581755272	-0.2189029586499532	-0.2212085818181587	0.7885292773229029	0.7885292773229029	-0.1309822700180261	-0.1438581288961917	0.1381120635882846	-0.01159384386426944	0.6529856135787167	0.2639476065240255	0.5201084487754815	-2.415166958445389	0.2189113330850168	-0.7153590262213242	0.331970886184785	-2.038583100407927	-2.038583100407927	-0.1337866002400862	0.1403200927915342	-0.440900648108511	0.02297904792993294	-0.1628613458304191	0.03759748630186788	-0.008277037013111145	-0.2026989153497547	0.03920719141336343	0.03424068020993215	0.1596335974995698	-19.44366683102647	-14.28938863388556	5.166867979188002	-6.792159812406926	-516.367373806845	-54.80596768085903	-25.66905952158853	0.5862430772074041	0.6537309689073513	-0.5836999515821294	-1.074289406323341	0.6465972657426255	-0.1191792681612293	1.400447258118434	-1.165232430931917	-1.165232430931964	0.0374417360884052	0.1776700032666555	-0.4870867339839083	0.4455382945711072	4.780808926996014e-07	7.760942988559845e-07	-2.491714696149894e-06	-1.618391326612815e-08	6.902015095052015e-07	1.755297865441232e-07	4.38592572514006e-07
1.52	-0.3420029160400903	-0.01067405318015231	0.7743569399072112	1.035596181098563	-0.4310804857412538	-0.2260622153114889	-0.2178187265758613	0.7680883774548571	0.7680883774548566	-0.1323160574886983	-0.1424460636454359	0.1336798001600248	-0.01134060926001423	0.6584584023379269	0.2703815104716091	0.5139313117148944	-2.424705524820626	0.2254665619742168	-0.7164228497617827	0.3459652525485657	-2.049304427775748	-2.049304427775748	-0.1329332281024475	0.1420601252872755	-0.4454689138967734	0.02768607205121976	-0.1569193746983684	0.03653750167829897	-0.007953647893042787	-0.2000303556803092	0.03979165480924641	0.03359551796657655	0.1548017286962833	-19.05355199159368	-14.0938494871013	5.154368284730443	-6.816626764716433	-512.5425528164659	-55.10595582144715	-26.58798448575054	0.499096209195524	0.6321574991619979	-0.6523677793335166	-0.8158803311098712	0.6780255399219041	-0.1024173407920779	1.407888310739305	-0.9734958949940454	-0.9734958949940457	0.1696658977353849	0.1774213888801895	-0.4212874674651473	0.515373272938013	4.582608231792777e-07	1.08262379698923e-06	-2.091656265482588e-06	7.437906570872729e-08	6.636523419622221e-07	2.711609881504944e-07	4.259593382762718e-07
1.53	-0.3353934118448484	-0.007939016613124811	0.7794626625441481	1.011309973882963	-0.4287935647104425	-0.2332302516903226	-0.2142902804434416	0.7475489698173282	0.747548969817329	-0.1336402878985375	-0.1410179414336704	0.1292041762279075	-0.01103998666539709	0.6633423848564033	0.2765775096969972	0.5071070085254999	-2.432182782607583	0.2318867829454363	-0.7170600402327001	0.3596625915802985	-2.058283945588401	-2.058283945588403	-0.1319321537015845	0.1435632793006245	-0.4495863463590433	0.032431675395391	-0.151099679779376	0.03558995432156197	-0.007599198120031831	-0.1970431500041728	0.03972612122571191	0.03277614749405051	0.1499895120293152	-18.88718114870979	-13.77798033697612	5.116406329265045	-6.502326833757904	-508.8092876744085	-55.23801300843175	-27.50624552386226	0.4680615379119862	0.6061081999424457	-0.7132607855827962	-0.6606482560345835	0.6194466233413092	-0.02532164580474373	1.341449346129683	-0.8162906908243441	-0.8162906908243265	0.06259192218847469	0.136227137949766	-0.3964994946356621	0.453122952487214	4.496119317655916e-07	1.285192521804109e-06	-1.887009185669633e-06	1.270556501355683e-07	6.608671148712355e-07	3.416853321902157e-07	4.223634217024816e-07
1.54	-0.328738065371474	-0.005143462640700385	0.7844969823098229	0.9869595941387855	-0.4264433562203952	-0.2404008503229781	-0.2106267023913567	0.7269285448083882	0.7269285448083901	-0.1349550548221827	-0.139574894735694	0.124689472299362	-0.01069211421987214	0.6676268579644108	0.2824849915509946	0.4996507374624906	-2.437540030536377	0.2381240538214295	-0.7169353005261443	0.3729916364816085	-2.065507902057992	-2.065507902057992	-0.1310405308636524	0.1450450225294742	-0.453284913182431	0.0371360422327836	-0.1452799848603836	0.03464240696482497	-0.007244748347020829	-0.1940559443280364	0.03966058764217741	0.0319567770215245	0.1451772953623471	-18.72255756421019	-13.46596599792367	5.08381279253803	-6.228086406873667	-505.1190578901732	-55.42109003860231	-28.4244455176339	0.3791943271017501	0.5744540248838674	-0.7787613540564631	-0.3918783594771785	0.6414355208766686	0.04996869470259312	1.334229484654742	-0.6223836263815878	-0.6223836263815876	0.1477755851492417	0.1731392319803608	-0.3375143396895082	0.5071259715822812	4.416303748086496e-07	1.460598903052785e-06	-1.71964023343437e-06	1.71010503417141e-07	6.609776666187104e-07	4.047000331882505e-07	4.194304105251525e-07
1.55	-0.3220428068201189	-0.002290260234004576	0.7894536831757083	0.9625659845749677	-0.4240318401586212	-0.2475666789884755	-0.2068318130657936	0.7062447147023329	0.7062447147023341	-0.1362614997269941	-0.1381173303954215	0.1201400178579874	-0.01029748009781594	0.671324318911759	0.2881081562391907	0.4915921725491128	-2.440837863940083	0.2441322709437314	-0.71607720236802	0.3859185963169541	-2.070953081636623	-2.070953081636623	-0.1302983908919901	0.1464854080331165	-0.4565196459705723	0.04177520144071742	-0.1393976330673955	0.03333481460025051	-0.00691589494447823	-0.1915013025862547	0.04006807583212821	0.03104489309957154	0.14032709752024	-18.42503382220261	-13.13535689296234	5.046327588554334	-6.041769659593234	-501.6829097180979	-55.58328751283375	-29.34376087408671	0.3499488700174864	0.5491924090447433	-0.8338602668663696	-0.2471169549919287	0.5734635335757328	0.1271026147185456	1.261784385864901	-0.4599127073515926	-0.4599127073515631	0.03015358848391415	0.1317838813365067	-0.3034480005174433	0.4398827107123492	4.344177032040435e-07	1.604709540627358e-06	-1.59522216732123e-06	2.049164055965572e-07	6.644246592018039e-07	4.590623193773861e-07	4.172611816524414e-07
1.56	-0.315313588280997	0.0006177627632246462	0.7943269071510822	0.9381497204522777	-0.4215616521804904	-0.2547192522247214	-0.2029096831112989	0.685515567283742	0.6855155672837422	-0.1375619791550269	-0.1366449030657566	0.1155608170383033	-0.009856940020617724	0.6744188555177529	0.2934491096576773	0.4829553593602176	-2.442070942310774	0.2498584370927848	-0.7142842146758455	0.3984397622679172	-2.074571364565163	-2.074571364565163	-0.12984743550796	0.1480176204079726	-0.4592341888443546	0.04631723326118794	-0.1335152812744073	0.03202722223567605	-0.006587041541935608	-0.1889466608444745	0.04047556402207902	0.03013300917761859	0.1354768996781331	-18.12843643907134	-12.80837038500049	5.013744390298876	-5.895112611438737	-498.2756518819462	-55.79291897182574	-30.26233737942305	0.2586094588308991	0.5180117709419562	-0.8944110091599548	0.02107264712590241	0.5850253262269736	0.2369466015128524	1.253070707778238	-0.2570042963634945	-0.2570042963634945	0.08953866762281262	0.1915046062231381	-0.2334763568177963	0.4877004940896222	4.093782455050358e-07	1.739958611066338e-06	-1.40264375198258e-06	2.511755998656693e-07	6.303998383200083e-07	4.958757784416512e-07	4.060727671281952e-07
1.57	-0.3085566529434642	0.003577632714947968	0.7991109287693486	0.9137318832203918	-0.41903544847866	-0.2618505325427922	-0.1988644827347019	0.6647595938207383	0.6647595938207385	-0.1388581781405283	-0.1351574816361274	0.1109570769844546	-0.009371225701729217	0.6768554402101523	0.298461233146215	0.4737619753725265	-2.441131996966272	0.255339556830498	-0.7118719945281753	0.4105057780407611	-2.076321419794755	-2.076321419794755	-0.1293973496276883	0.1494520988179916	-0.4614414116592808	0.05080910801967834	-0.12760902358225	0.03065791598033395	-0.006283035838860898	-0.1864078922256902	0.04068089845452604	0.02907291608785208	0.1305540135686278	-17.91952886304782	-12.39884557696377	4.964783331369731	-5.536209834753751	-495.0860607325055	-55.91295079452094	-31.16436931097031	0.2192566848360914	0.4833351869175617	-0.9447498362813642	0.1849762189212875	0.523118795645895	0.2586734578938983	1.169186760428702	-0.08879403563653195	-0.08879403563644866	0.02227099437591397	0.1169950119917491	-0.2034185045809883	0.4272564643758511	3.620553051880262e-07	1.864130722585828e-06	-1.124864900112045e-06	3.128764092469011e-07	5.495352506071015e-07	5.107532035998285e-07	3.8361037053953e-07
